{
  "accessors": [
    {
      "bufferView": 1,
      "componentType": 5126,
      "count": 450,
      "max": [
        1.8286800384521484,
        4.3515200614929199,
        3.5224800109863281
      ],
      "min": [
        -1.8286800384521484,
        -1.0653300285339355,
        -3.1668999195098877
      ],
      "type": "VEC3"
    },
    {
      "bufferView": 1,
      "byteOffset": 5400,
      "componentType": 5126,
      "count": 450,
      "max": [
        0.99070310592651367,
        0.98946613073348999,
        0.96568381786346436
      ],
      "min": [
        -0.99070310592651367,
        -0.98353660106658936,
        -0.99296200275421143
      ],
      "type": "VEC3"
    },
    {
      "bufferView": 0,
      "componentType": 5125,
      "count": 588,
      "max": [
        449
      ],
      "min": [
        0
      ],
      "type": "SCALAR"
    }
  ],
  "asset": {
    "extras": {
      "author": "Zypheos (https://sketchfab.com/zypheos)",
      "license": "CC-BY-4.0 (http://creativecommons.org/licenses/by/4.0/)",
      "source": "https://sketchfab.com/models/6b6a762bd8b34b6d9d46d44129b55037",
      "title": "Low Poly Head"
    },
    "generator": "Sketchfab-3.18.7",
    "version": "2.0"
  },
  "bufferViews": [
    {
      "buffer": 0,
      "byteLength": 2352,
      "byteOffset": 0,
      "name": "floatBufferViews",
      "target": 34963
    },
    {
      "buffer": 0,
      "byteLength": 10800,
      "byteOffset": 2352,
      "byteStride": 12,
      "name": "floatBufferViews",
      "target": 34962
    }
  ],
  "buffers": [
    {
      "byteLength": 13152,
      "uri": "scene.bin"
    }
  ],
  "materials": [
    {
      "doubleSided": true,
      "emissiveFactor": [
        0,
        0,
        0
      ],
      "name": "Root",
      "pbrMetallicRoughness": {
        "baseColorFactor": [
          0.64097213929999997,
          0.64097213929999997,
          0.64097213929999997,
          1
        ],
        "metallicFactor": 0.52291666670000003,
        "roughnessFactor": 1
      }
    }
  ],
  "meshes": [
    {
      "name": "Plane_0",
      "primitives": [
        {
          "attributes": {
            "NORMAL": 1,
            "POSITION": 0
          },
          "indices": 2,
          "material": 0,
          "mode": 4
        }
      ]
    }
  ],
  "nodes": [
    {
      "children": [
        1
      ],
      "name": "RootNode (gltf orientation matrix)",
      "rotation": [
        -0.70710678118654746,
        -0,
        -0,
        0.70710678118654757
      ]
    },
    {
      "children": [
        2
      ],
      "name": "RootNode (model correction matrix)"
    },
    {
      "children": [
        3,
        5
      ],
      "name": "Root"
    },
    {
      "children": [
        4
      ],
      "matrix": [
        -0.29086000000000006,
        0.95517000000000007,
        -0.05519000000000001,
        0,
        -0.77110000000000001,
        -0.19988000000000003,
        0.60452000000000006,
        0,
        0.56639000000000006,
        0.21839000000000003,
        0.7946700000000001,
        0,
        4.0762500000000008,
        1.00545,
        5.9038600000000008,
        1
      ],
      "name": "Lamp"
    },
    {
      "name": "Lamp"
    },
    {
      "children": [
        6
      ],
      "name": "Plane"
    },
    {
      "mesh": 0,
      "name": "Plane_0"
    }
  ],
  "scene": 0,
  "scenes": [
    {
      "name": "OSG_Scene",
      "nodes": [
        0
      ]
    }
  ]
}

